<svg width="260" height="178" viewBox="0 0 260 178" fill="none" xmlns="http://www.w3.org/2000/svg">
<mask id="path-1-inside-1_10309_4645" fill="white">
<path d="M0 4C0 1.79086 1.79086 0 4 0H256C258.209 0 260 1.79086 260 4V174C260 176.209 258.209 178 256 178H4C1.79086 178 0 176.209 0 174V4Z"/>
</mask>
<path d="M0 4C0 1.79086 1.79086 0 4 0H256C258.209 0 260 1.79086 260 4V174C260 176.209 258.209 178 256 178H4C1.79086 178 0 176.209 0 174V4Z" fill="#161B22"/>
<path d="M-1 4C-1 1.23858 1.23858 -1 4 -1H256C258.761 -1 261 1.23858 261 4H259C259 2.34315 257.657 1 256 1H4C2.34315 1 1 2.34315 1 4H-1ZM260 178H0H260ZM4 178C1.23858 178 -1 175.761 -1 173V4C-1 1.23858 1.23858 -1 4 -1V1C2.34315 1 1 2.34315 1 4V174C1 176.209 2.34315 178 4 178ZM256 -1C258.761 -1 261 1.23858 261 4V173C261 175.761 258.761 178 256 178C257.657 178 259 176.209 259 174V4C259 2.34315 257.657 1 256 1V-1Z" fill="white" fill-opacity="0.1" mask="url(#path-1-inside-1_10309_4645)"/>
<path d="M240 35L242 37L240 39" stroke="white" stroke-width="0.5" stroke-linecap="round" stroke-linejoin="round"/>
<path d="M213 40V33H213.64L216.21 36.8L218.77 33H219.41V40H218.77V34.06L216.2 37.89L213.64 34.08V40H213ZM223.318 40.12C222.838 40.12 222.412 40.01 222.038 39.79C221.672 39.5633 221.382 39.2533 221.168 38.86C220.962 38.4667 220.858 38.0133 220.858 37.5C220.858 36.9867 220.962 36.5333 221.168 36.14C221.375 35.7467 221.662 35.44 222.028 35.22C222.402 34.9933 222.825 34.88 223.298 34.88C223.778 34.88 224.202 34.9933 224.568 35.22C224.942 35.44 225.232 35.7467 225.438 36.14C225.645 36.5333 225.748 36.9867 225.748 37.5C225.748 38.0133 225.645 38.4667 225.438 38.86C225.232 39.2533 224.945 39.5633 224.578 39.79C224.212 40.01 223.792 40.12 223.318 40.12ZM223.318 39.57C223.678 39.57 223.995 39.4833 224.268 39.31C224.542 39.13 224.755 38.8867 224.908 38.58C225.068 38.2667 225.148 37.9067 225.148 37.5C225.148 37.0933 225.068 36.7367 224.908 36.43C224.755 36.1167 224.538 35.8733 224.258 35.7C223.978 35.52 223.658 35.43 223.298 35.43C222.938 35.43 222.618 35.52 222.338 35.7C222.065 35.8733 221.848 36.1167 221.688 36.43C221.535 36.7367 221.458 37.0933 221.458 37.5C221.458 37.9067 221.538 38.2667 221.698 38.58C221.858 38.8867 222.078 39.13 222.358 39.31C222.638 39.4833 222.958 39.57 223.318 39.57ZM227.199 37.26C227.199 36.72 227.299 36.2833 227.499 35.95C227.706 35.6167 227.969 35.3733 228.289 35.22C228.616 35.06 228.959 34.98 229.319 34.98V35.53C229.026 35.53 228.743 35.5833 228.469 35.69C228.203 35.79 227.983 35.9633 227.809 36.21C227.636 36.45 227.549 36.78 227.549 37.2L227.199 37.26ZM226.949 40V35H227.549V40H226.949ZM232.332 40.12C231.852 40.12 231.425 40.01 231.052 39.79C230.685 39.5633 230.395 39.2533 230.182 38.86C229.975 38.4667 229.872 38.0133 229.872 37.5C229.872 36.9867 229.975 36.5333 230.182 36.14C230.389 35.7467 230.672 35.44 231.032 35.22C231.399 34.9933 231.815 34.88 232.282 34.88C232.755 34.88 233.155 34.9967 233.482 35.23C233.815 35.4567 234.069 35.7733 234.242 36.18C234.415 36.58 234.502 37.0433 234.502 37.57H230.232L230.462 37.38C230.462 37.84 230.539 38.2333 230.692 38.56C230.845 38.8867 231.062 39.1367 231.342 39.31C231.629 39.4833 231.959 39.57 232.332 39.57C232.719 39.57 233.045 39.4767 233.312 39.29C233.585 39.0967 233.799 38.85 233.952 38.55L234.452 38.86C234.325 39.1067 234.159 39.3267 233.952 39.52C233.752 39.7067 233.515 39.8533 233.242 39.96C232.969 40.0667 232.665 40.12 232.332 40.12ZM230.512 37.2L230.262 37.02H234.112L233.862 37.21C233.862 36.8567 233.795 36.5467 233.662 36.28C233.535 36.0133 233.355 35.8067 233.122 35.66C232.889 35.5067 232.609 35.43 232.282 35.43C231.962 35.43 231.665 35.5067 231.392 35.66C231.125 35.8067 230.912 36.0133 230.752 36.28C230.592 36.54 230.512 36.8467 230.512 37.2Z" fill="white" fill-opacity="0.8"/>
<path d="M41 50V43H43.15C43.6233 43 44.0267 43.0733 44.36 43.22C44.6933 43.3667 44.95 43.58 45.13 43.86C45.31 44.14 45.4 44.4767 45.4 44.87C45.4 45.2367 45.32 45.5533 45.16 45.82C45 46.0867 44.7733 46.2967 44.48 46.45C44.84 46.6167 45.1167 46.8433 45.31 47.13C45.5033 47.41 45.6 47.7433 45.6 48.13C45.6 48.5233 45.5133 48.86 45.34 49.14C45.1667 49.42 44.9167 49.6333 44.59 49.78C44.27 49.9267 43.88 50 43.42 50H41ZM41.64 49.41H43.42C43.9067 49.41 44.2867 49.2967 44.56 49.07C44.8333 48.8433 44.97 48.53 44.97 48.13C44.97 47.69 44.81 47.35 44.49 47.11C44.17 46.8633 43.7233 46.74 43.15 46.74H41.64V49.41ZM41.64 46.15H43.42C43.8467 46.15 44.1767 46.0367 44.41 45.81C44.65 45.5833 44.77 45.27 44.77 44.87C44.77 44.4567 44.6267 44.14 44.34 43.92C44.06 43.6933 43.6633 43.58 43.15 43.58H41.64V46.15ZM49.0135 50.12C48.5335 50.12 48.1068 50.01 47.7335 49.79C47.3668 49.5633 47.0768 49.2533 46.8635 48.86C46.6568 48.4667 46.5535 48.0133 46.5535 47.5C46.5535 46.9867 46.6568 46.5333 46.8635 46.14C47.0702 45.7467 47.3535 45.44 47.7135 45.22C48.0802 44.9933 48.4968 44.88 48.9635 44.88C49.4368 44.88 49.8368 44.9967 50.1635 45.23C50.4968 45.4567 50.7502 45.7733 50.9235 46.18C51.0968 46.58 51.1835 47.0433 51.1835 47.57H46.9135L47.1435 47.38C47.1435 47.84 47.2202 48.2333 47.3735 48.56C47.5268 48.8867 47.7435 49.1367 48.0235 49.31C48.3102 49.4833 48.6402 49.57 49.0135 49.57C49.4002 49.57 49.7268 49.4767 49.9935 49.29C50.2668 49.0967 50.4802 48.85 50.6335 48.55L51.1335 48.86C51.0068 49.1067 50.8402 49.3267 50.6335 49.52C50.4335 49.7067 50.1968 49.8533 49.9235 49.96C49.6502 50.0667 49.3468 50.12 49.0135 50.12ZM47.1935 47.2L46.9435 47.02H50.7935L50.5435 47.21C50.5435 46.8567 50.4768 46.5467 50.3435 46.28C50.2168 46.0133 50.0368 45.8067 49.8035 45.66C49.5702 45.5067 49.2902 45.43 48.9635 45.43C48.6435 45.43 48.3468 45.5067 48.0735 45.66C47.8068 45.8067 47.5935 46.0133 47.4335 46.28C47.2735 46.54 47.1935 46.8467 47.1935 47.2ZM53.9832 50.12C53.6032 50.12 53.2765 50.0633 53.0032 49.95C52.7299 49.8367 52.5065 49.69 52.3332 49.51C52.1665 49.33 52.0499 49.1433 51.9832 48.95L52.5232 48.75C52.6365 48.9967 52.8165 49.1967 53.0632 49.35C53.3165 49.4967 53.5865 49.57 53.8732 49.57C54.2265 49.57 54.5265 49.4967 54.7732 49.35C55.0199 49.2033 55.1432 48.9967 55.1432 48.73C55.1432 48.49 55.0532 48.2933 54.8732 48.14C54.6932 47.9867 54.4265 47.8633 54.0732 47.77L53.5832 47.64C53.1365 47.52 52.7899 47.3467 52.5432 47.12C52.3032 46.8867 52.1832 46.6267 52.1832 46.34C52.1832 45.88 52.3332 45.5233 52.6332 45.27C52.9399 45.01 53.3999 44.88 54.0132 44.88C54.2999 44.88 54.5565 44.9233 54.7832 45.01C55.0165 45.09 55.2132 45.2067 55.3732 45.36C55.5399 45.5133 55.6632 45.6967 55.7432 45.91L55.2032 46.14C55.0965 45.88 54.9399 45.6967 54.7332 45.59C54.5265 45.4833 54.2565 45.43 53.9232 45.43C53.5699 45.43 53.2899 45.5067 53.0832 45.66C52.8832 45.8067 52.7832 46.0167 52.7832 46.29C52.7832 46.4367 52.8632 46.5833 53.0232 46.73C53.1899 46.87 53.4365 46.9833 53.7632 47.07L54.1932 47.18C54.5199 47.26 54.7965 47.3767 55.0232 47.53C55.2565 47.6767 55.4332 47.8467 55.5532 48.04C55.6799 48.2333 55.7432 48.4467 55.7432 48.68C55.7432 48.98 55.6665 49.24 55.5132 49.46C55.3599 49.6733 55.1499 49.8367 54.8832 49.95C54.6232 50.0633 54.3232 50.12 53.9832 50.12ZM58.7514 50.12C58.2914 50.12 57.9314 50 57.6714 49.76C57.4114 49.5133 57.2814 49.1667 57.2814 48.72V43.44H57.8814V48.72C57.8814 48.9867 57.9581 49.1967 58.1114 49.35C58.2647 49.4967 58.4781 49.57 58.7514 49.57C58.8314 49.57 58.9081 49.56 58.9814 49.54C59.0614 49.5133 59.1747 49.45 59.3214 49.35L59.5714 49.87C59.3914 49.9767 59.2414 50.0433 59.1214 50.07C59.0014 50.1033 58.8781 50.12 58.7514 50.12ZM56.3914 45.55V45H59.4714V45.55H56.3914ZM63.373 50V43H65.523C65.963 43 66.353 43.09 66.693 43.27C67.033 43.4433 67.2964 43.6867 67.483 44C67.6764 44.3067 67.773 44.6633 67.773 45.07C67.773 45.47 67.6664 45.8267 67.453 46.14C67.2464 46.4533 66.963 46.7 66.603 46.88C66.243 47.0533 65.8397 47.14 65.393 47.14H64.013V50H63.373ZM67.353 50L65.653 47.1L66.183 46.79L68.053 50H67.353ZM64.013 46.55H65.693C65.9597 46.55 66.1997 46.4867 66.413 46.36C66.633 46.2333 66.8097 46.06 66.943 45.84C67.0764 45.6133 67.143 45.3567 67.143 45.07C67.143 44.63 66.9897 44.2733 66.683 44C66.383 43.72 65.9964 43.58 65.523 43.58H64.013V46.55ZM71.4647 50.12C70.9847 50.12 70.558 50.01 70.1847 49.79C69.818 49.5633 69.528 49.2533 69.3147 48.86C69.108 48.4667 69.0047 48.0133 69.0047 47.5C69.0047 46.9867 69.108 46.5333 69.3147 46.14C69.5214 45.7467 69.8047 45.44 70.1647 45.22C70.5314 44.9933 70.948 44.88 71.4147 44.88C71.888 44.88 72.288 44.9967 72.6147 45.23C72.948 45.4567 73.2014 45.7733 73.3747 46.18C73.548 46.58 73.6347 47.0433 73.6347 47.57H69.3647L69.5947 47.38C69.5947 47.84 69.6714 48.2333 69.8247 48.56C69.978 48.8867 70.1947 49.1367 70.4747 49.31C70.7614 49.4833 71.0914 49.57 71.4647 49.57C71.8514 49.57 72.178 49.4767 72.4447 49.29C72.718 49.0967 72.9314 48.85 73.0847 48.55L73.5847 48.86C73.458 49.1067 73.2914 49.3267 73.0847 49.52C72.8847 49.7067 72.648 49.8533 72.3747 49.96C72.1014 50.0667 71.798 50.12 71.4647 50.12ZM69.6447 47.2L69.3947 47.02H73.2447L72.9947 47.21C72.9947 46.8567 72.928 46.5467 72.7947 46.28C72.668 46.0133 72.488 45.8067 72.2547 45.66C72.0214 45.5067 71.7414 45.43 71.4147 45.43C71.0947 45.43 70.798 45.5067 70.5247 45.66C70.258 45.8067 70.0447 46.0133 69.8847 46.28C69.7247 46.54 69.6447 46.8467 69.6447 47.2ZM76.4344 50.12C76.0544 50.12 75.7277 50.0633 75.4544 49.95C75.181 49.8367 74.9577 49.69 74.7844 49.51C74.6177 49.33 74.501 49.1433 74.4344 48.95L74.9744 48.75C75.0877 48.9967 75.2677 49.1967 75.5144 49.35C75.7677 49.4967 76.0377 49.57 76.3244 49.57C76.6777 49.57 76.9777 49.4967 77.2244 49.35C77.471 49.2033 77.5944 48.9967 77.5944 48.73C77.5944 48.49 77.5044 48.2933 77.3244 48.14C77.1444 47.9867 76.8777 47.8633 76.5244 47.77L76.0344 47.64C75.5877 47.52 75.241 47.3467 74.9944 47.12C74.7544 46.8867 74.6344 46.6267 74.6344 46.34C74.6344 45.88 74.7844 45.5233 75.0844 45.27C75.391 45.01 75.851 44.88 76.4644 44.88C76.751 44.88 77.0077 44.9233 77.2344 45.01C77.4677 45.09 77.6644 45.2067 77.8244 45.36C77.991 45.5133 78.1144 45.6967 78.1944 45.91L77.6544 46.14C77.5477 45.88 77.391 45.6967 77.1844 45.59C76.9777 45.4833 76.7077 45.43 76.3744 45.43C76.021 45.43 75.741 45.5067 75.5344 45.66C75.3344 45.8067 75.2344 46.0167 75.2344 46.29C75.2344 46.4367 75.3144 46.5833 75.4744 46.73C75.641 46.87 75.8877 46.9833 76.2144 47.07L76.6444 47.18C76.971 47.26 77.2477 47.3767 77.4744 47.53C77.7077 47.6767 77.8844 47.8467 78.0044 48.04C78.131 48.2333 78.1944 48.4467 78.1944 48.68C78.1944 48.98 78.1177 49.24 77.9644 49.46C77.811 49.6733 77.601 49.8367 77.3344 49.95C77.0744 50.0633 76.7744 50.12 76.4344 50.12ZM82.8726 50L82.8326 49.08V45H83.4326V50H82.8726ZM79.2426 47.56V45H79.8426V47.56H79.2426ZM79.8426 47.56C79.8426 48.1133 79.9059 48.5333 80.0326 48.82C80.1659 49.1067 80.3459 49.3033 80.5726 49.41C80.7992 49.51 81.0492 49.56 81.3226 49.56C81.7959 49.56 82.1659 49.3867 82.4326 49.04C82.6992 48.6867 82.8326 48.1967 82.8326 47.57H83.2026C83.2026 48.1033 83.1259 48.56 82.9726 48.94C82.8192 49.32 82.5959 49.6133 82.3026 49.82C82.0092 50.02 81.6459 50.12 81.2126 50.12C80.8326 50.12 80.4926 50.0433 80.1926 49.89C79.8926 49.73 79.6592 49.48 79.4926 49.14C79.3259 48.7933 79.2426 48.3433 79.2426 47.79V47.56H79.8426ZM84.9297 50V43H85.5297V50H84.9297ZM88.8393 50.12C88.3793 50.12 88.0193 50 87.7593 49.76C87.4993 49.5133 87.3693 49.1667 87.3693 48.72V43.44H87.9693V48.72C87.9693 48.9867 88.046 49.1967 88.1993 49.35C88.3526 49.4967 88.566 49.57 88.8393 49.57C88.9193 49.57 88.996 49.56 89.0693 49.54C89.1493 49.5133 89.2626 49.45 89.4093 49.35L89.6593 49.87C89.4793 49.9767 89.3293 50.0433 89.2093 50.07C89.0893 50.1033 88.966 50.12 88.8393 50.12ZM86.4793 45.55V45H89.5593V45.55H86.4793Z" fill="white" fill-opacity="0.8"/>
<rect x="15" y="39" width="21" height="15" rx="7.5" fill="#24292F"/>
<path d="M21.086 49.084C20.75 49.084 20.4677 49.021 20.239 48.895C20.0103 48.7643 19.8283 48.5893 19.693 48.37C19.5577 48.1507 19.4597 47.8987 19.399 47.614C19.343 47.3247 19.315 47.019 19.315 46.697C19.315 46.277 19.357 45.9013 19.441 45.57C19.5297 45.2387 19.6557 44.9587 19.819 44.73C19.9823 44.4967 20.1807 44.3193 20.414 44.198C20.6473 44.0767 20.911 44.016 21.205 44.016C21.4477 44.016 21.688 44.0557 21.926 44.135C22.1687 44.2097 22.3833 44.3147 22.57 44.45L22.241 44.87C22.0917 44.7673 21.9307 44.688 21.758 44.632C21.5853 44.5713 21.4197 44.541 21.261 44.541C20.785 44.541 20.4233 44.7417 20.176 45.143C19.9287 45.5443 19.819 46.1533 19.847 46.97L19.721 46.844C19.833 46.5593 20.0127 46.3353 20.26 46.172C20.5073 46.004 20.799 45.92 21.135 45.92C21.4477 45.92 21.7253 45.9877 21.968 46.123C22.2153 46.2583 22.4067 46.4473 22.542 46.69C22.682 46.928 22.752 47.201 22.752 47.509C22.752 47.8123 22.682 48.0853 22.542 48.328C22.402 48.566 22.206 48.7527 21.954 48.888C21.7067 49.0187 21.4173 49.084 21.086 49.084ZM21.086 48.566C21.296 48.566 21.4803 48.5217 21.639 48.433C21.8023 48.3397 21.9283 48.2137 22.017 48.055C22.1103 47.8917 22.157 47.705 22.157 47.495C22.157 47.285 22.1103 47.1007 22.017 46.942C21.9283 46.7787 21.8023 46.6527 21.639 46.564C21.4803 46.4753 21.296 46.431 21.086 46.431C20.8807 46.431 20.6963 46.4753 20.533 46.564C20.3697 46.6527 20.2413 46.7787 20.148 46.942C20.0547 47.1007 20.008 47.285 20.008 47.495C20.008 47.705 20.0547 47.8917 20.148 48.055C20.2413 48.2137 20.3697 48.3397 20.533 48.433C20.6963 48.5217 20.8807 48.566 21.086 48.566ZM23.3638 49V48.51C23.3638 48.356 23.3942 48.2043 23.4548 48.055C23.5202 47.901 23.6112 47.7493 23.7278 47.6C23.8492 47.4507 23.9962 47.3107 24.1688 47.18L25.1838 46.417C25.3052 46.333 25.4102 46.2373 25.4988 46.13C25.5922 46.018 25.6645 45.9037 25.7158 45.787C25.7672 45.6657 25.7928 45.549 25.7928 45.437C25.7928 45.2737 25.7532 45.1267 25.6738 44.996C25.5945 44.8607 25.4825 44.7533 25.3378 44.674C25.1932 44.5947 25.0228 44.555 24.8268 44.555C24.6355 44.555 24.4675 44.5923 24.3228 44.667C24.1782 44.737 24.0592 44.8327 23.9658 44.954C23.8725 45.0707 23.8048 45.1967 23.7628 45.332L23.1608 45.213C23.2168 45.003 23.3172 44.807 23.4618 44.625C23.6112 44.443 23.8002 44.296 24.0288 44.184C24.2575 44.072 24.5118 44.016 24.7918 44.016C25.1185 44.016 25.4008 44.079 25.6388 44.205C25.8768 44.3263 26.0612 44.4943 26.1918 44.709C26.3272 44.919 26.3948 45.1593 26.3948 45.43C26.3948 45.6867 26.3248 45.9293 26.1848 46.158C26.0448 46.3867 25.8418 46.6083 25.5758 46.823L24.6168 47.551C24.4302 47.691 24.2855 47.838 24.1828 47.992C24.0848 48.146 24.0288 48.307 24.0148 48.475H26.4648V49H23.3638ZM28.814 48.503V45.325H29.311V48.503H28.814ZM27.47 47.166V46.669H30.641V47.166H27.47Z" fill="white"/>
<path d="M16.246 31V21.2H17.702L20.95 26.002L24.184 21.2H25.64V31H24.268V23.412L20.936 28.326L17.618 23.426V31H16.246ZM30.8989 31.168C30.2175 31.168 29.6155 31.014 29.0929 30.706C28.5702 30.3887 28.1595 29.9547 27.8609 29.404C27.5622 28.8533 27.4129 28.2187 27.4129 27.5C27.4129 26.7813 27.5622 26.1467 27.8609 25.596C28.1595 25.0453 28.5702 24.616 29.0929 24.308C29.6249 23.9907 30.2315 23.832 30.9129 23.832C31.5569 23.832 32.1215 23.9953 32.6069 24.322C33.0922 24.6393 33.4702 25.0967 33.7409 25.694C34.0209 26.282 34.1609 26.9773 34.1609 27.78H28.5049L28.7569 27.57C28.7569 28.0647 28.8549 28.494 29.0509 28.858C29.2469 29.222 29.5129 29.502 29.8489 29.698C30.1849 29.8847 30.5675 29.978 30.9969 29.978C31.4635 29.978 31.8509 29.8707 32.1589 29.656C32.4762 29.432 32.7235 29.152 32.9009 28.816L34.0489 29.348C33.8622 29.712 33.6195 30.034 33.3209 30.314C33.0222 30.5847 32.6675 30.7947 32.2569 30.944C31.8555 31.0933 31.4029 31.168 30.8989 31.168ZM28.8409 26.94L28.5749 26.73H32.9989L32.7469 26.94C32.7469 26.5293 32.6629 26.1793 32.4949 25.89C32.3269 25.5913 32.1029 25.3673 31.8229 25.218C31.5429 25.0593 31.2302 24.98 30.8849 24.98C30.5489 24.98 30.2222 25.0593 29.9049 25.218C29.5969 25.3673 29.3402 25.5867 29.1349 25.876C28.9389 26.1653 28.8409 26.52 28.8409 26.94ZM38.5688 31.168C37.8874 31.168 37.2854 31.014 36.7628 30.706C36.2401 30.3887 35.8294 29.9547 35.5308 29.404C35.2321 28.8533 35.0828 28.2187 35.0828 27.5C35.0828 26.7813 35.2321 26.1467 35.5308 25.596C35.8294 25.0453 36.2401 24.616 36.7628 24.308C37.2948 23.9907 37.9014 23.832 38.5828 23.832C39.2268 23.832 39.7914 23.9953 40.2768 24.322C40.7621 24.6393 41.1401 25.0967 41.4108 25.694C41.6908 26.282 41.8308 26.9773 41.8308 27.78H36.1748L36.4268 27.57C36.4268 28.0647 36.5248 28.494 36.7208 28.858C36.9168 29.222 37.1828 29.502 37.5188 29.698C37.8548 29.8847 38.2374 29.978 38.6668 29.978C39.1334 29.978 39.5208 29.8707 39.8288 29.656C40.1461 29.432 40.3934 29.152 40.5708 28.816L41.7188 29.348C41.5321 29.712 41.2894 30.034 40.9908 30.314C40.6921 30.5847 40.3374 30.7947 39.9268 30.944C39.5254 31.0933 39.0728 31.168 38.5688 31.168ZM36.5108 26.94L36.2448 26.73H40.6688L40.4168 26.94C40.4168 26.5293 40.3328 26.1793 40.1648 25.89C39.9968 25.5913 39.7728 25.3673 39.4928 25.218C39.2128 25.0593 38.9001 24.98 38.5548 24.98C38.2188 24.98 37.8921 25.0593 37.5748 25.218C37.2668 25.3673 37.0101 25.5867 36.8048 25.876C36.6088 26.1653 36.5108 26.52 36.5108 26.94ZM45.8467 31.168C45.1467 31.168 44.6054 30.9907 44.2227 30.636C43.84 30.272 43.6487 29.754 43.6487 29.082V21.816H44.9787V28.886C44.9787 29.2313 45.0627 29.4973 45.2307 29.684C45.408 29.8613 45.66 29.95 45.9867 29.95C46.08 29.95 46.1827 29.9313 46.2947 29.894C46.4067 29.8567 46.542 29.782 46.7007 29.67L47.2047 30.706C46.962 30.8647 46.7287 30.9813 46.5047 31.056C46.29 31.1307 46.0707 31.168 45.8467 31.168ZM42.4587 25.148V24H46.9667V25.148H42.4587ZM48.6018 31V24H49.9318V31H48.6018ZM49.2738 22.516C49.0591 22.516 48.8724 22.4367 48.7138 22.278C48.5551 22.11 48.4758 21.9187 48.4758 21.704C48.4758 21.48 48.5551 21.2933 48.7138 21.144C48.8724 20.9853 49.0591 20.906 49.2738 20.906C49.4978 20.906 49.6844 20.9853 49.8338 21.144C49.9924 21.2933 50.0718 21.48 50.0718 21.704C50.0718 21.9187 49.9924 22.11 49.8338 22.278C49.6844 22.4367 49.4978 22.516 49.2738 22.516ZM51.881 31V24H53.127L53.211 25.288V31H51.881ZM56.725 31V27.416H58.055V31H56.725ZM56.725 27.416C56.725 26.7813 56.6504 26.3007 56.501 25.974C56.361 25.638 56.1604 25.4047 55.899 25.274C55.647 25.1433 55.353 25.0733 55.017 25.064C54.4477 25.064 54.0044 25.2647 53.687 25.666C53.3697 26.0673 53.211 26.632 53.211 27.36H52.637C52.637 26.6227 52.7444 25.9927 52.959 25.47C53.183 24.938 53.4957 24.532 53.897 24.252C54.3077 23.972 54.793 23.832 55.353 23.832C55.9037 23.832 56.3797 23.944 56.781 24.168C57.1917 24.392 57.5044 24.742 57.719 25.218C57.943 25.6847 58.055 26.3007 58.055 27.066V27.416H56.725ZM62.6267 33.982C62.16 33.982 61.7354 33.9353 61.3527 33.842C60.97 33.758 60.648 33.66 60.3867 33.548C60.1254 33.436 59.9294 33.338 59.7987 33.254L60.3027 32.176C60.424 32.2507 60.5967 32.3347 60.8207 32.428C61.0447 32.5307 61.306 32.6147 61.6047 32.68C61.9034 32.7547 62.2347 32.792 62.5987 32.792C63.028 32.792 63.4107 32.7033 63.7467 32.526C64.0827 32.358 64.344 32.092 64.5307 31.728C64.7267 31.364 64.8247 30.8973 64.8247 30.328V24H66.1547V30.3C66.1547 31.1027 66.0007 31.7747 65.6927 32.316C65.394 32.8667 64.9787 33.282 64.4467 33.562C63.924 33.842 63.3174 33.982 62.6267 33.982ZM62.5007 30.902C61.866 30.902 61.3107 30.7573 60.8347 30.468C60.368 30.1693 59.9994 29.7587 59.7287 29.236C59.4674 28.704 59.3367 28.0927 59.3367 27.402C59.3367 26.6833 59.4674 26.058 59.7287 25.526C59.9994 24.994 60.368 24.5787 60.8347 24.28C61.3107 23.9813 61.866 23.832 62.5007 23.832C63.0794 23.832 63.5834 23.9813 64.0127 24.28C64.4514 24.5787 64.7874 24.9987 65.0207 25.54C65.2634 26.072 65.3847 26.6973 65.3847 27.416C65.3847 28.1067 65.2634 28.718 65.0207 29.25C64.7874 29.7727 64.4514 30.1787 64.0127 30.468C63.5834 30.7573 63.0794 30.902 62.5007 30.902ZM62.8367 29.782C63.2287 29.782 63.5694 29.6793 63.8587 29.474C64.148 29.2593 64.3767 28.9747 64.5447 28.62C64.7127 28.256 64.7967 27.8407 64.7967 27.374C64.7967 26.9073 64.7127 26.4967 64.5447 26.142C64.3767 25.7873 64.1434 25.512 63.8447 25.316C63.5554 25.1107 63.2147 25.008 62.8227 25.008C62.412 25.008 62.048 25.1107 61.7307 25.316C61.4227 25.512 61.18 25.7873 61.0027 26.142C60.8254 26.4967 60.7367 26.9073 60.7367 27.374C60.7367 27.8407 60.8254 28.256 61.0027 28.62C61.1894 28.9747 61.4367 29.2593 61.7447 29.474C62.062 29.6793 62.426 29.782 62.8367 29.782ZM73.9241 31.168C73.4295 31.168 72.9861 31.0933 72.5941 30.944C72.2115 30.7947 71.8848 30.594 71.6141 30.342C71.3528 30.09 71.1568 29.8053 71.0261 29.488L72.1741 28.984C72.3235 29.2733 72.5475 29.5113 72.8461 29.698C73.1448 29.8847 73.4761 29.978 73.8401 29.978C74.2415 29.978 74.5728 29.9033 74.8341 29.754C75.0955 29.6047 75.2261 29.3947 75.2261 29.124C75.2261 28.8627 75.1281 28.6573 74.9321 28.508C74.7361 28.3587 74.4515 28.2373 74.0781 28.144L73.4201 27.976C72.7668 27.7987 72.2581 27.5327 71.8941 27.178C71.5395 26.8233 71.3621 26.422 71.3621 25.974C71.3621 25.2927 71.5815 24.7653 72.0201 24.392C72.4588 24.0187 73.1075 23.832 73.9661 23.832C74.3861 23.832 74.7688 23.8927 75.1141 24.014C75.4688 24.1353 75.7675 24.308 76.0101 24.532C76.2621 24.756 76.4395 25.022 76.5421 25.33L75.4221 25.834C75.3101 25.554 75.1188 25.3487 74.8481 25.218C74.5775 25.078 74.2601 25.008 73.8961 25.008C73.5228 25.008 73.2288 25.092 73.0141 25.26C72.7995 25.4187 72.6921 25.6427 72.6921 25.932C72.6921 26.0907 72.7808 26.2447 72.9581 26.394C73.1448 26.534 73.4155 26.6507 73.7701 26.744L74.5261 26.926C74.9835 27.038 75.3615 27.2107 75.6601 27.444C75.9588 27.668 76.1828 27.9247 76.3321 28.214C76.4815 28.494 76.5561 28.788 76.5561 29.096C76.5561 29.516 76.4395 29.8847 76.2061 30.202C75.9821 30.51 75.6695 30.748 75.2681 30.916C74.8761 31.084 74.4281 31.168 73.9241 31.168ZM81.1316 31.168C80.4316 31.168 79.811 31.014 79.2696 30.706C78.7283 30.3887 78.3036 29.9547 77.9956 29.404C77.697 28.8533 77.5476 28.2187 77.5476 27.5C77.5476 26.7813 77.697 26.1467 77.9956 25.596C78.3036 25.0453 78.7236 24.616 79.2556 24.308C79.797 23.9907 80.413 23.832 81.1036 23.832C81.785 23.832 82.3963 23.9907 82.9376 24.308C83.4883 24.6253 83.899 25.078 84.1696 25.666L82.9656 26.17C82.7883 25.8247 82.5316 25.554 82.1956 25.358C81.869 25.162 81.491 25.064 81.0616 25.064C80.6416 25.064 80.2683 25.1667 79.9416 25.372C79.615 25.5773 79.3583 25.8667 79.1716 26.24C78.985 26.604 78.8916 27.024 78.8916 27.5C78.8916 27.976 78.985 28.396 79.1716 28.76C79.3583 29.124 79.6196 29.4133 79.9556 29.628C80.2916 29.8333 80.6696 29.936 81.0896 29.936C81.519 29.936 81.9016 29.8287 82.2376 29.614C82.5736 29.39 82.8256 29.0913 82.9936 28.718L84.2116 29.208C83.941 29.824 83.5303 30.3047 82.9796 30.65C82.4383 30.9953 81.8223 31.168 81.1316 31.168ZM88.6915 31.168C87.9915 31.168 87.3755 31.014 86.8435 30.706C86.3115 30.3887 85.8915 29.9547 85.5835 29.404C85.2848 28.8533 85.1355 28.2187 85.1355 27.5C85.1355 26.7813 85.2848 26.1467 85.5835 25.596C85.8822 25.0453 86.2975 24.616 86.8295 24.308C87.3615 23.9907 87.9728 23.832 88.6635 23.832C89.3542 23.832 89.9655 23.9907 90.4975 24.308C91.0295 24.616 91.4448 25.0453 91.7435 25.596C92.0422 26.1467 92.1915 26.7813 92.1915 27.5C92.1915 28.2187 92.0422 28.8533 91.7435 29.404C91.4448 29.9547 91.0295 30.3887 90.4975 30.706C89.9748 31.014 89.3728 31.168 88.6915 31.168ZM88.6915 29.95C89.1115 29.95 89.4848 29.8473 89.8115 29.642C90.1382 29.4273 90.3902 29.138 90.5675 28.774C90.7542 28.41 90.8475 27.9853 90.8475 27.5C90.8475 27.0147 90.7542 26.59 90.5675 26.226C90.3902 25.862 90.1335 25.5773 89.7975 25.372C89.4615 25.1573 89.0835 25.05 88.6635 25.05C88.2342 25.05 87.8562 25.1573 87.5295 25.372C87.2028 25.5773 86.9462 25.862 86.7595 26.226C86.5728 26.59 86.4795 27.0147 86.4795 27.5C86.4795 27.9853 86.5728 28.41 86.7595 28.774C86.9462 29.138 87.2075 29.4273 87.5435 29.642C87.8795 29.8473 88.2622 29.95 88.6915 29.95ZM94.4606 27.234C94.4606 26.478 94.6053 25.862 94.8946 25.386C95.1839 24.91 95.5573 24.5553 96.0146 24.322C96.4719 24.0887 96.9526 23.972 97.4566 23.972V25.232C97.0366 25.232 96.6353 25.2973 96.2526 25.428C95.8793 25.5493 95.5713 25.7547 95.3286 26.044C95.0953 26.324 94.9786 26.7067 94.9786 27.192L94.4606 27.234ZM93.6486 31V24H94.9786V31H93.6486ZM101.623 31.168C100.942 31.168 100.34 31.014 99.8175 30.706C99.2948 30.3887 98.8841 29.9547 98.5855 29.404C98.2868 28.8533 98.1375 28.2187 98.1375 27.5C98.1375 26.7813 98.2868 26.1467 98.5855 25.596C98.8841 25.0453 99.2948 24.616 99.8175 24.308C100.349 23.9907 100.956 23.832 101.637 23.832C102.281 23.832 102.846 23.9953 103.331 24.322C103.817 24.6393 104.195 25.0967 104.465 25.694C104.745 26.282 104.885 26.9773 104.885 27.78H99.2295L99.4815 27.57C99.4815 28.0647 99.5795 28.494 99.7755 28.858C99.9715 29.222 100.237 29.502 100.573 29.698C100.909 29.8847 101.292 29.978 101.721 29.978C102.188 29.978 102.575 29.8707 102.883 29.656C103.201 29.432 103.448 29.152 103.625 28.816L104.773 29.348C104.587 29.712 104.344 30.034 104.045 30.314C103.747 30.5847 103.392 30.7947 102.981 30.944C102.58 31.0933 102.127 31.168 101.623 31.168ZM99.5655 26.94L99.2995 26.73H103.723L103.471 26.94C103.471 26.5293 103.387 26.1793 103.219 25.89C103.051 25.5913 102.827 25.3673 102.547 25.218C102.267 25.0593 101.955 24.98 101.609 24.98C101.273 24.98 100.947 25.0593 100.629 25.218C100.321 25.3673 100.065 25.5867 99.8595 25.876C99.6635 26.1653 99.5655 26.52 99.5655 26.94Z" fill="white" fill-opacity="0.7"/>
<path d="M176.241 84.5862H179.862H183.483L179.862 88.931L176.241 84.5862Z" fill="#24292F"/>
<rect x="169" y="73" width="21" height="11.5862" rx="5.7931" fill="#24292F"/>
<path d="M174.836 80.8651C174.536 80.8651 174.272 80.8171 174.044 80.7211C173.816 80.6211 173.64 80.4851 173.516 80.3131C173.392 80.1371 173.33 79.9331 173.33 79.7011C173.33 79.4571 173.392 79.2431 173.516 79.0591C173.64 78.8751 173.816 78.7331 174.044 78.6331C174.272 78.5291 174.536 78.4771 174.836 78.4771C175.144 78.4771 175.41 78.5291 175.634 78.6331C175.862 78.7331 176.038 78.8751 176.162 79.0591C176.29 79.2431 176.354 79.4571 176.354 79.7011C176.354 79.9331 176.29 80.1371 176.162 80.3131C176.038 80.4851 175.862 80.6211 175.634 80.7211C175.41 80.8171 175.144 80.8651 174.836 80.8651ZM174.836 80.4211C175.132 80.4211 175.374 80.3511 175.562 80.2111C175.75 80.0671 175.844 79.8811 175.844 79.6531C175.844 79.4211 175.75 79.2331 175.562 79.0891C175.374 78.9411 175.132 78.8671 174.836 78.8671C174.644 78.8671 174.472 78.9011 174.32 78.9691C174.172 79.0331 174.054 79.1251 173.966 79.2451C173.882 79.3611 173.84 79.4971 173.84 79.6531C173.84 79.8051 173.882 79.9391 173.966 80.0551C174.054 80.1711 174.172 80.2611 174.32 80.3251C174.472 80.3891 174.644 80.4211 174.836 80.4211ZM174.836 78.7711C174.568 78.7711 174.332 78.7251 174.128 78.6331C173.924 78.5371 173.766 78.4071 173.654 78.2431C173.542 78.0751 173.486 77.8811 173.486 77.6611C173.486 77.4371 173.542 77.2391 173.654 77.0671C173.766 76.8951 173.924 76.7611 174.128 76.6651C174.332 76.5691 174.568 76.5211 174.836 76.5211C175.112 76.5211 175.35 76.5691 175.55 76.6651C175.754 76.7611 175.912 76.8951 176.024 77.0671C176.14 77.2391 176.198 77.4371 176.198 77.6611C176.198 77.8811 176.14 78.0751 176.024 78.2431C175.912 78.4071 175.754 78.5371 175.55 78.6331C175.35 78.7251 175.112 78.7711 174.836 78.7711ZM174.836 78.3931C175.088 78.3931 175.294 78.3311 175.454 78.2071C175.618 78.0791 175.7 77.9131 175.7 77.7091C175.7 77.4851 175.618 77.3051 175.454 77.1691C175.294 77.0291 175.088 76.9591 174.836 76.9591C174.588 76.9591 174.384 77.0291 174.224 77.1691C174.064 77.3051 173.984 77.4851 173.984 77.7091C173.984 77.9131 174.064 78.0791 174.224 78.2071C174.384 78.3311 174.588 78.3931 174.836 78.3931ZM178.606 80.8651C178.286 80.8651 178.002 80.7731 177.754 80.5891C177.506 80.4011 177.312 80.1451 177.172 79.8211C177.032 79.4931 176.962 79.1171 176.962 78.6931C176.962 78.2691 177.032 77.8951 177.172 77.5711C177.312 77.2431 177.504 76.9871 177.748 76.8031C177.996 76.6151 178.282 76.5211 178.606 76.5211C178.93 76.5211 179.214 76.6151 179.458 76.8031C179.706 76.9871 179.9 77.2431 180.04 77.5711C180.184 77.8951 180.256 78.2691 180.256 78.6931C180.256 79.1171 180.186 79.4931 180.046 79.8211C179.906 80.1451 179.712 80.4011 179.464 80.5891C179.216 80.7731 178.93 80.8651 178.606 80.8651ZM178.606 80.4091C178.83 80.4091 179.028 80.3351 179.2 80.1871C179.376 80.0391 179.512 79.8371 179.608 79.5811C179.708 79.3251 179.758 79.0291 179.758 78.6931C179.758 78.3571 179.708 78.0611 179.608 77.8051C179.512 77.5451 179.376 77.3431 179.2 77.1991C179.028 77.0511 178.83 76.9771 178.606 76.9771C178.382 76.9771 178.184 77.0511 178.012 77.1991C177.84 77.3431 177.704 77.5451 177.604 77.8051C177.508 78.0611 177.46 78.3571 177.46 78.6931C177.46 79.0291 177.508 79.3251 177.604 79.5811C177.704 79.8371 177.84 80.0391 178.012 80.1871C178.188 80.3351 178.386 80.4091 178.606 80.4091ZM181.111 80.7931L184.093 76.5931H184.651L181.651 80.7931H181.111ZM184.021 80.8891C183.841 80.8891 183.679 80.8471 183.535 80.7631C183.395 80.6751 183.285 80.5571 183.205 80.4091C183.129 80.2571 183.091 80.0851 183.091 79.8931C183.091 79.6971 183.129 79.5251 183.205 79.3771C183.285 79.2291 183.395 79.1131 183.535 79.0291C183.679 78.9411 183.841 78.8971 184.021 78.8971C184.205 78.8971 184.367 78.9411 184.507 79.0291C184.647 79.1131 184.757 79.2291 184.837 79.3771C184.917 79.5251 184.957 79.6971 184.957 79.8931C184.957 80.0851 184.917 80.2571 184.837 80.4091C184.757 80.5571 184.647 80.6751 184.507 80.7631C184.367 80.8471 184.205 80.8891 184.021 80.8891ZM184.021 80.5051C184.177 80.5051 184.303 80.4471 184.399 80.3311C184.495 80.2151 184.543 80.0691 184.543 79.8931C184.543 79.7171 184.495 79.5711 184.399 79.4551C184.303 79.3391 184.177 79.2811 184.021 79.2811C183.873 79.2811 183.749 79.3391 183.649 79.4551C183.553 79.5711 183.505 79.7171 183.505 79.8931C183.505 80.0691 183.553 80.2151 183.649 80.3311C183.749 80.4471 183.873 80.5051 184.021 80.5051ZM181.747 78.4891C181.563 78.4891 181.401 78.4471 181.261 78.3631C181.121 78.2751 181.011 78.1571 180.931 78.0091C180.851 77.8571 180.811 77.6851 180.811 77.4931C180.811 77.2971 180.851 77.1251 180.931 76.9771C181.011 76.8291 181.121 76.7131 181.261 76.6291C181.401 76.5411 181.563 76.4971 181.747 76.4971C181.931 76.4971 182.093 76.5411 182.233 76.6291C182.373 76.7131 182.483 76.8291 182.563 76.9771C182.643 77.1251 182.683 77.2971 182.683 77.4931C182.683 77.6851 182.643 77.8571 182.563 78.0091C182.483 78.1571 182.373 78.2751 182.233 78.3631C182.093 78.4471 181.931 78.4891 181.747 78.4891ZM181.747 78.1051C181.899 78.1051 182.023 78.0471 182.119 77.9311C182.215 77.8151 182.263 77.6691 182.263 77.4931C182.263 77.3171 182.215 77.1711 182.119 77.0551C182.023 76.9391 181.899 76.8811 181.747 76.8811C181.599 76.8811 181.475 76.9391 181.375 77.0551C181.279 77.1711 181.231 77.3171 181.231 77.4931C181.231 77.6691 181.279 77.8151 181.375 77.9311C181.475 78.0471 181.599 78.1051 181.747 78.1051Z" fill="white"/>
<rect x="15" y="91" width="230" height="3" rx="1.5" fill="#24292F"/>
<rect x="15" y="91" width="165" height="3" rx="1.5" fill="#5D6064"/>
<path d="M16.116 84V75.6H21.084V76.524H17.136V79.236H20.736V80.148H17.136V83.076H21.108V84H16.116ZM22.9416 84V78H23.8416L23.9016 79.104V84H22.9416ZM27.1536 84V80.928H28.1136V84H27.1536ZM27.1536 80.928C27.1536 80.336 27.0856 79.884 26.9496 79.572C26.8136 79.26 26.6256 79.048 26.3856 78.936C26.1456 78.816 25.8736 78.756 25.5696 78.756C25.0416 78.756 24.6296 78.944 24.3336 79.32C24.0456 79.688 23.9016 80.212 23.9016 80.892H23.4336C23.4336 80.26 23.5256 79.716 23.7096 79.26C23.8936 78.804 24.1616 78.456 24.5136 78.216C24.8656 77.976 25.2896 77.856 25.7856 77.856C26.2576 77.856 26.6656 77.952 27.0096 78.144C27.3616 78.328 27.6336 78.624 27.8256 79.032C28.0256 79.44 28.1216 79.976 28.1136 80.64V80.928H27.1536ZM32.033 86.544C31.649 86.544 31.297 86.504 30.977 86.424C30.665 86.352 30.397 86.268 30.173 86.172C29.957 86.084 29.801 86.008 29.705 85.944L30.065 85.164C30.169 85.22 30.317 85.288 30.509 85.368C30.701 85.456 30.925 85.528 31.181 85.584C31.445 85.648 31.725 85.68 32.021 85.68C32.405 85.68 32.749 85.6 33.053 85.44C33.365 85.288 33.605 85.044 33.773 84.708C33.949 84.38 34.037 83.956 34.037 83.436V78H34.997V83.424C34.997 84.112 34.869 84.688 34.613 85.152C34.357 85.616 34.005 85.964 33.557 86.196C33.109 86.428 32.601 86.544 32.033 86.544ZM31.997 83.952C31.461 83.952 30.989 83.824 30.581 83.568C30.173 83.312 29.853 82.956 29.621 82.5C29.397 82.036 29.285 81.508 29.285 80.916C29.285 80.308 29.397 79.776 29.621 79.32C29.853 78.856 30.173 78.496 30.581 78.24C30.989 77.984 31.461 77.856 31.997 77.856C32.501 77.856 32.941 77.984 33.317 78.24C33.693 78.496 33.985 78.856 34.193 79.32C34.409 79.776 34.517 80.308 34.517 80.916C34.517 81.516 34.409 82.044 34.193 82.5C33.985 82.956 33.693 83.312 33.317 83.568C32.941 83.824 32.501 83.952 31.997 83.952ZM32.225 83.124C32.577 83.124 32.889 83.028 33.161 82.836C33.433 82.644 33.645 82.384 33.797 82.056C33.949 81.72 34.025 81.332 34.025 80.892C34.025 80.468 33.945 80.092 33.785 79.764C33.633 79.428 33.421 79.168 33.149 78.984C32.885 78.792 32.573 78.696 32.213 78.696C31.837 78.696 31.501 78.792 31.205 78.984C30.917 79.168 30.689 79.428 30.521 79.764C30.361 80.092 30.281 80.468 30.281 80.892C30.281 81.332 30.365 81.72 30.533 82.056C30.701 82.384 30.929 82.644 31.217 82.836C31.513 83.028 31.849 83.124 32.225 83.124ZM40.3719 84L40.3239 83.016V80.832C40.3239 80.36 40.2719 79.972 40.1679 79.668C40.0639 79.356 39.8999 79.12 39.6759 78.96C39.4519 78.8 39.1599 78.72 38.7999 78.72C38.4719 78.72 38.1879 78.788 37.9479 78.924C37.7159 79.052 37.5239 79.26 37.3719 79.548L36.5079 79.212C36.6599 78.932 36.8439 78.692 37.0599 78.492C37.2759 78.284 37.5279 78.128 37.8159 78.024C38.1039 77.912 38.4319 77.856 38.7999 77.856C39.3599 77.856 39.8199 77.968 40.1799 78.192C40.5479 78.408 40.8239 78.732 41.0079 79.164C41.1919 79.588 41.2799 80.116 41.2719 80.748L41.2599 84H40.3719ZM38.5719 84.144C37.8679 84.144 37.3159 83.984 36.9159 83.664C36.5239 83.336 36.3279 82.884 36.3279 82.308C36.3279 81.7 36.5279 81.236 36.9279 80.916C37.3359 80.588 37.9039 80.424 38.6319 80.424H40.3479V81.228H38.8479C38.2879 81.228 37.8879 81.32 37.6479 81.504C37.4159 81.688 37.2999 81.952 37.2999 82.296C37.2999 82.608 37.4159 82.856 37.6479 83.04C37.8799 83.216 38.2039 83.304 38.6199 83.304C38.9639 83.304 39.2639 83.232 39.5199 83.088C39.7759 82.936 39.9719 82.724 40.1079 82.452C40.2519 82.172 40.3239 81.844 40.3239 81.468H40.7319C40.7319 82.284 40.5479 82.936 40.1799 83.424C39.8119 83.904 39.2759 84.144 38.5719 84.144ZM45.1931 86.544C44.8091 86.544 44.4571 86.504 44.1371 86.424C43.8251 86.352 43.5571 86.268 43.3331 86.172C43.1171 86.084 42.9611 86.008 42.8651 85.944L43.2251 85.164C43.3291 85.22 43.4771 85.288 43.6691 85.368C43.8611 85.456 44.0851 85.528 44.3411 85.584C44.6051 85.648 44.8851 85.68 45.1811 85.68C45.5651 85.68 45.9091 85.6 46.2131 85.44C46.5251 85.288 46.7651 85.044 46.9331 84.708C47.1091 84.38 47.1971 83.956 47.1971 83.436V78H48.1571V83.424C48.1571 84.112 48.0291 84.688 47.7731 85.152C47.5171 85.616 47.1651 85.964 46.7171 86.196C46.2691 86.428 45.7611 86.544 45.1931 86.544ZM45.1571 83.952C44.6211 83.952 44.1491 83.824 43.7411 83.568C43.3331 83.312 43.0131 82.956 42.7811 82.5C42.5571 82.036 42.4451 81.508 42.4451 80.916C42.4451 80.308 42.5571 79.776 42.7811 79.32C43.0131 78.856 43.3331 78.496 43.7411 78.24C44.1491 77.984 44.6211 77.856 45.1571 77.856C45.6611 77.856 46.1011 77.984 46.4771 78.24C46.8531 78.496 47.1451 78.856 47.3531 79.32C47.5691 79.776 47.6771 80.308 47.6771 80.916C47.6771 81.516 47.5691 82.044 47.3531 82.5C47.1451 82.956 46.8531 83.312 46.4771 83.568C46.1011 83.824 45.6611 83.952 45.1571 83.952ZM45.3851 83.124C45.7371 83.124 46.0491 83.028 46.3211 82.836C46.5931 82.644 46.8051 82.384 46.9571 82.056C47.1091 81.72 47.1851 81.332 47.1851 80.892C47.1851 80.468 47.1051 80.092 46.9451 79.764C46.7931 79.428 46.5811 79.168 46.3091 78.984C46.0451 78.792 45.7331 78.696 45.3731 78.696C44.9971 78.696 44.6611 78.792 44.3651 78.984C44.0771 79.168 43.8491 79.428 43.6811 79.764C43.5211 80.092 43.4411 80.468 43.4411 80.892C43.4411 81.332 43.5251 81.72 43.6931 82.056C43.8611 82.384 44.0891 82.644 44.3771 82.836C44.6731 83.028 45.0091 83.124 45.3851 83.124ZM52.4641 84.144C51.8801 84.144 51.3641 84.012 50.9161 83.748C50.4681 83.476 50.1161 83.104 49.8601 82.632C49.6121 82.16 49.4881 81.616 49.4881 81C49.4881 80.384 49.6121 79.84 49.8601 79.368C50.1161 78.896 50.4641 78.528 50.9041 78.264C51.3521 77.992 51.8641 77.856 52.4401 77.856C53.0001 77.856 53.4841 77.996 53.8921 78.276C54.3001 78.548 54.6161 78.932 54.8401 79.428C55.0641 79.924 55.1761 80.508 55.1761 81.18H50.2201L50.4601 80.976C50.4601 81.456 50.5441 81.868 50.7121 82.212C50.8881 82.556 51.1321 82.82 51.4441 83.004C51.7561 83.18 52.1121 83.268 52.5121 83.268C52.9361 83.268 53.2921 83.168 53.5801 82.968C53.8761 82.768 54.1041 82.504 54.2641 82.176L55.0921 82.596C54.9401 82.908 54.7361 83.18 54.4801 83.412C54.2321 83.644 53.9361 83.824 53.5921 83.952C53.2561 84.08 52.8801 84.144 52.4641 84.144ZM50.5201 80.568L50.2681 80.376H54.4081L54.1561 80.58C54.1561 80.196 54.0801 79.864 53.9281 79.584C53.7761 79.304 53.5721 79.088 53.3161 78.936C53.0601 78.784 52.7641 78.708 52.4281 78.708C52.1001 78.708 51.7881 78.784 51.4921 78.936C51.2041 79.088 50.9681 79.304 50.7841 79.584C50.6081 79.856 50.5201 80.184 50.5201 80.568ZM56.3869 84V78H57.2869L57.3349 78.84C57.5189 78.52 57.7549 78.276 58.0429 78.108C58.3309 77.94 58.6669 77.856 59.0509 77.856C59.5309 77.856 59.9389 77.968 60.2749 78.192C60.6189 78.416 60.8669 78.756 61.0189 79.212C61.1869 78.772 61.4309 78.436 61.7509 78.204C62.0789 77.972 62.4669 77.856 62.9149 77.856C63.5869 77.856 64.1149 78.08 64.4989 78.528C64.8909 78.976 65.0829 79.656 65.0749 80.568V84H64.1149V80.928C64.1149 80.336 64.0509 79.884 63.9229 79.572C63.8029 79.26 63.6389 79.048 63.4309 78.936C63.2229 78.816 62.9829 78.756 62.7109 78.756C62.2389 78.756 61.8709 78.944 61.6069 79.32C61.3429 79.688 61.2109 80.212 61.2109 80.892V84H60.2509V80.928C60.2509 80.336 60.1869 79.884 60.0589 79.572C59.9389 79.26 59.7709 79.048 59.5549 78.936C59.3469 78.816 59.1069 78.756 58.8349 78.756C58.3709 78.756 58.0069 78.944 57.7429 79.32C57.4789 79.688 57.3469 80.212 57.3469 80.892V84H56.3869ZM69.2219 84.144C68.6379 84.144 68.1219 84.012 67.6739 83.748C67.2259 83.476 66.8739 83.104 66.6179 82.632C66.3699 82.16 66.2459 81.616 66.2459 81C66.2459 80.384 66.3699 79.84 66.6179 79.368C66.8739 78.896 67.2219 78.528 67.6619 78.264C68.1099 77.992 68.6219 77.856 69.1979 77.856C69.7579 77.856 70.2419 77.996 70.6499 78.276C71.0579 78.548 71.3739 78.932 71.5979 79.428C71.8219 79.924 71.9339 80.508 71.9339 81.18H66.9779L67.2179 80.976C67.2179 81.456 67.3019 81.868 67.4699 82.212C67.6459 82.556 67.8899 82.82 68.2019 83.004C68.5139 83.18 68.8699 83.268 69.2699 83.268C69.6939 83.268 70.0499 83.168 70.3379 82.968C70.6339 82.768 70.8619 82.504 71.0219 82.176L71.8499 82.596C71.6979 82.908 71.4939 83.18 71.2379 83.412C70.9899 83.644 70.6939 83.824 70.3499 83.952C70.0139 84.08 69.6379 84.144 69.2219 84.144ZM67.2779 80.568L67.0259 80.376H71.1659L70.9139 80.58C70.9139 80.196 70.8379 79.864 70.6859 79.584C70.5339 79.304 70.3299 79.088 70.0739 78.936C69.8179 78.784 69.5219 78.708 69.1859 78.708C68.8579 78.708 68.5459 78.784 68.2499 78.936C67.9619 79.088 67.7259 79.304 67.5419 79.584C67.3659 79.856 67.2779 80.184 67.2779 80.568ZM73.1447 84V78H74.0447L74.1047 79.104V84H73.1447ZM77.3567 84V80.928H78.3167V84H77.3567ZM77.3567 80.928C77.3567 80.336 77.2887 79.884 77.1527 79.572C77.0167 79.26 76.8287 79.048 76.5887 78.936C76.3487 78.816 76.0767 78.756 75.7727 78.756C75.2447 78.756 74.8327 78.944 74.5367 79.32C74.2487 79.688 74.1047 80.212 74.1047 80.892H73.6367C73.6367 80.26 73.7287 79.716 73.9127 79.26C74.0967 78.804 74.3647 78.456 74.7167 78.216C75.0687 77.976 75.4927 77.856 75.9887 77.856C76.4607 77.856 76.8687 77.952 77.2127 78.144C77.5647 78.328 77.8367 78.624 78.0287 79.032C78.2287 79.44 78.3247 79.976 78.3167 80.64V80.928H77.3567ZM82.0921 84.144C81.5081 84.144 81.0561 83.992 80.7361 83.688C80.4161 83.384 80.2561 82.956 80.2561 82.404V76.128H81.2161V82.308C81.2161 82.612 81.2961 82.848 81.4561 83.016C81.6241 83.176 81.8561 83.256 82.1521 83.256C82.2481 83.256 82.3401 83.244 82.4281 83.22C82.5241 83.188 82.6481 83.116 82.8001 83.004L83.1721 83.784C82.9641 83.92 82.7761 84.012 82.6081 84.06C82.4401 84.116 82.2681 84.144 82.0921 84.144ZM79.2121 78.852V78H83.0161V78.852H79.2121Z" fill="white"/>
<path d="M140.241 117.586H143.862H147.483L143.862 121.931L140.241 117.586Z" fill="#24292F"/>
<rect x="133" y="106" width="21" height="11.5862" rx="5.7931" fill="#24292F"/>
<path d="M139.24 113.865C139.072 113.865 138.9 113.841 138.724 113.793C138.552 113.741 138.388 113.663 138.232 113.559C138.08 113.455 137.954 113.321 137.854 113.157L138.262 112.923C138.402 113.099 138.554 113.227 138.718 113.307C138.882 113.387 139.052 113.427 139.228 113.427C139.504 113.427 139.728 113.343 139.9 113.175C140.076 113.003 140.164 112.779 140.164 112.503C140.164 112.231 140.08 112.009 139.912 111.837C139.744 111.665 139.524 111.579 139.252 111.579C139.104 111.579 138.958 111.613 138.814 111.681C138.67 111.745 138.558 111.825 138.478 111.921L138.022 111.813L138.226 109.593H140.464V110.049H138.676L138.55 111.387C138.662 111.319 138.786 111.265 138.922 111.225C139.058 111.185 139.196 111.165 139.336 111.165C139.592 111.165 139.82 111.221 140.02 111.333C140.22 111.445 140.378 111.601 140.494 111.801C140.61 112.001 140.668 112.231 140.668 112.491C140.668 112.763 140.606 113.003 140.482 113.211C140.362 113.415 140.194 113.575 139.978 113.691C139.766 113.807 139.52 113.865 139.24 113.865ZM142.787 113.865C142.487 113.865 142.223 113.817 141.995 113.721C141.767 113.621 141.591 113.485 141.467 113.313C141.343 113.137 141.281 112.933 141.281 112.701C141.281 112.457 141.343 112.243 141.467 112.059C141.591 111.875 141.767 111.733 141.995 111.633C142.223 111.529 142.487 111.477 142.787 111.477C143.095 111.477 143.361 111.529 143.585 111.633C143.813 111.733 143.989 111.875 144.113 112.059C144.241 112.243 144.305 112.457 144.305 112.701C144.305 112.933 144.241 113.137 144.113 113.313C143.989 113.485 143.813 113.621 143.585 113.721C143.361 113.817 143.095 113.865 142.787 113.865ZM142.787 113.421C143.083 113.421 143.325 113.351 143.513 113.211C143.701 113.067 143.795 112.881 143.795 112.653C143.795 112.421 143.701 112.233 143.513 112.089C143.325 111.941 143.083 111.867 142.787 111.867C142.595 111.867 142.423 111.901 142.271 111.969C142.123 112.033 142.005 112.125 141.917 112.245C141.833 112.361 141.791 112.497 141.791 112.653C141.791 112.805 141.833 112.939 141.917 113.055C142.005 113.171 142.123 113.261 142.271 113.325C142.423 113.389 142.595 113.421 142.787 113.421ZM142.787 111.771C142.519 111.771 142.283 111.725 142.079 111.633C141.875 111.537 141.717 111.407 141.605 111.243C141.493 111.075 141.437 110.881 141.437 110.661C141.437 110.437 141.493 110.239 141.605 110.067C141.717 109.895 141.875 109.761 142.079 109.665C142.283 109.569 142.519 109.521 142.787 109.521C143.063 109.521 143.301 109.569 143.501 109.665C143.705 109.761 143.863 109.895 143.975 110.067C144.091 110.239 144.149 110.437 144.149 110.661C144.149 110.881 144.091 111.075 143.975 111.243C143.863 111.407 143.705 111.537 143.501 111.633C143.301 111.725 143.063 111.771 142.787 111.771ZM142.787 111.393C143.039 111.393 143.245 111.331 143.405 111.207C143.569 111.079 143.651 110.913 143.651 110.709C143.651 110.485 143.569 110.305 143.405 110.169C143.245 110.029 143.039 109.959 142.787 109.959C142.539 109.959 142.335 110.029 142.175 110.169C142.015 110.305 141.935 110.485 141.935 110.709C141.935 110.913 142.015 111.079 142.175 111.207C142.335 111.331 142.539 111.393 142.787 111.393ZM145.219 113.793L148.201 109.593H148.759L145.759 113.793H145.219ZM148.129 113.889C147.949 113.889 147.787 113.847 147.643 113.763C147.503 113.675 147.393 113.557 147.313 113.409C147.237 113.257 147.199 113.085 147.199 112.893C147.199 112.697 147.237 112.525 147.313 112.377C147.393 112.229 147.503 112.113 147.643 112.029C147.787 111.941 147.949 111.897 148.129 111.897C148.313 111.897 148.475 111.941 148.615 112.029C148.755 112.113 148.865 112.229 148.945 112.377C149.025 112.525 149.065 112.697 149.065 112.893C149.065 113.085 149.025 113.257 148.945 113.409C148.865 113.557 148.755 113.675 148.615 113.763C148.475 113.847 148.313 113.889 148.129 113.889ZM148.129 113.505C148.285 113.505 148.411 113.447 148.507 113.331C148.603 113.215 148.651 113.069 148.651 112.893C148.651 112.717 148.603 112.571 148.507 112.455C148.411 112.339 148.285 112.281 148.129 112.281C147.981 112.281 147.857 112.339 147.757 112.455C147.661 112.571 147.613 112.717 147.613 112.893C147.613 113.069 147.661 113.215 147.757 113.331C147.857 113.447 147.981 113.505 148.129 113.505ZM145.855 111.489C145.671 111.489 145.509 111.447 145.369 111.363C145.229 111.275 145.119 111.157 145.039 111.009C144.959 110.857 144.919 110.685 144.919 110.493C144.919 110.297 144.959 110.125 145.039 109.977C145.119 109.829 145.229 109.713 145.369 109.629C145.509 109.541 145.671 109.497 145.855 109.497C146.039 109.497 146.201 109.541 146.341 109.629C146.481 109.713 146.591 109.829 146.671 109.977C146.751 110.125 146.791 110.297 146.791 110.493C146.791 110.685 146.751 110.857 146.671 111.009C146.591 111.157 146.481 111.275 146.341 111.363C146.201 111.447 146.039 111.489 145.855 111.489ZM145.855 111.105C146.007 111.105 146.131 111.047 146.227 110.931C146.323 110.815 146.371 110.669 146.371 110.493C146.371 110.317 146.323 110.171 146.227 110.055C146.131 109.939 146.007 109.881 145.855 109.881C145.707 109.881 145.583 109.939 145.483 110.055C145.387 110.171 145.339 110.317 145.339 110.493C145.339 110.669 145.387 110.815 145.483 110.931C145.583 111.047 145.707 111.105 145.855 111.105Z" fill="white"/>
<rect x="15" y="124" width="230" height="3" rx="1.5" fill="#24292F"/>
<rect x="15" y="124" width="128" height="3" rx="1.5" fill="#5D6064"/>
<path d="M21.936 117L18.564 108.6H19.584L23.004 117H21.936ZM15.108 117L18.528 108.6H19.56L16.188 117H15.108ZM16.728 114.612V113.7H21.396V114.612H16.728ZM26.2791 119.544C25.8951 119.544 25.5431 119.504 25.2231 119.424C24.9111 119.352 24.6431 119.268 24.4191 119.172C24.2031 119.084 24.0471 119.008 23.9511 118.944L24.3111 118.164C24.4151 118.22 24.5631 118.288 24.7551 118.368C24.9471 118.456 25.1711 118.528 25.4271 118.584C25.6911 118.648 25.9711 118.68 26.2671 118.68C26.6511 118.68 26.9951 118.6 27.2991 118.44C27.6111 118.288 27.8511 118.044 28.0191 117.708C28.1951 117.38 28.2831 116.956 28.2831 116.436V111H29.2431V116.424C29.2431 117.112 29.1151 117.688 28.8591 118.152C28.6031 118.616 28.2511 118.964 27.8031 119.196C27.3551 119.428 26.8471 119.544 26.2791 119.544ZM26.2431 116.952C25.7071 116.952 25.2351 116.824 24.8271 116.568C24.4191 116.312 24.0991 115.956 23.8671 115.5C23.6431 115.036 23.5311 114.508 23.5311 113.916C23.5311 113.308 23.6431 112.776 23.8671 112.32C24.0991 111.856 24.4191 111.496 24.8271 111.24C25.2351 110.984 25.7071 110.856 26.2431 110.856C26.7471 110.856 27.1871 110.984 27.5631 111.24C27.9391 111.496 28.2311 111.856 28.4391 112.32C28.6551 112.776 28.7631 113.308 28.7631 113.916C28.7631 114.516 28.6551 115.044 28.4391 115.5C28.2311 115.956 27.9391 116.312 27.5631 116.568C27.1871 116.824 26.7471 116.952 26.2431 116.952ZM26.4711 116.124C26.8231 116.124 27.1351 116.028 27.4071 115.836C27.6791 115.644 27.8911 115.384 28.0431 115.056C28.1951 114.72 28.2711 114.332 28.2711 113.892C28.2711 113.468 28.1911 113.092 28.0311 112.764C27.8791 112.428 27.6671 112.168 27.3951 111.984C27.1311 111.792 26.8191 111.696 26.4591 111.696C26.0831 111.696 25.7471 111.792 25.4511 111.984C25.1631 112.168 24.9351 112.428 24.7671 112.764C24.6071 113.092 24.5271 113.468 24.5271 113.892C24.5271 114.332 24.6111 114.72 24.7791 115.056C24.9471 115.384 25.1751 115.644 25.4631 115.836C25.7591 116.028 26.0951 116.124 26.4711 116.124ZM33.55 117.144C32.966 117.144 32.45 117.012 32.002 116.748C31.554 116.476 31.202 116.104 30.946 115.632C30.698 115.16 30.574 114.616 30.574 114C30.574 113.384 30.698 112.84 30.946 112.368C31.202 111.896 31.55 111.528 31.99 111.264C32.438 110.992 32.95 110.856 33.526 110.856C34.086 110.856 34.57 110.996 34.978 111.276C35.386 111.548 35.702 111.932 35.926 112.428C36.15 112.924 36.262 113.508 36.262 114.18H31.306L31.546 113.976C31.546 114.456 31.63 114.868 31.798 115.212C31.974 115.556 32.218 115.82 32.53 116.004C32.842 116.18 33.198 116.268 33.598 116.268C34.022 116.268 34.378 116.168 34.666 115.968C34.962 115.768 35.19 115.504 35.35 115.176L36.178 115.596C36.026 115.908 35.822 116.18 35.566 116.412C35.318 116.644 35.022 116.824 34.678 116.952C34.342 117.08 33.966 117.144 33.55 117.144ZM31.606 113.568L31.354 113.376H35.494L35.242 113.58C35.242 113.196 35.166 112.864 35.014 112.584C34.862 112.304 34.658 112.088 34.402 111.936C34.146 111.784 33.85 111.708 33.514 111.708C33.186 111.708 32.874 111.784 32.578 111.936C32.29 112.088 32.054 112.304 31.87 112.584C31.694 112.856 31.606 113.184 31.606 113.568ZM37.4728 117V111H38.3728L38.4328 112.104V117H37.4728ZM41.6848 117V113.928H42.6448V117H41.6848ZM41.6848 113.928C41.6848 113.336 41.6168 112.884 41.4808 112.572C41.3448 112.26 41.1568 112.048 40.9168 111.936C40.6768 111.816 40.4048 111.756 40.1008 111.756C39.5728 111.756 39.1608 111.944 38.8648 112.32C38.5768 112.688 38.4328 113.212 38.4328 113.892H37.9648C37.9648 113.26 38.0568 112.716 38.2408 112.26C38.4248 111.804 38.6928 111.456 39.0448 111.216C39.3968 110.976 39.8208 110.856 40.3168 110.856C40.7888 110.856 41.1968 110.952 41.5408 111.144C41.8928 111.328 42.1648 111.624 42.3568 112.032C42.5568 112.44 42.6528 112.976 42.6448 113.64V113.928H41.6848ZM48.6042 117L48.5562 115.884V108.6H49.5162V117H48.6042ZM46.5282 117.144C45.9922 117.144 45.5202 117.012 45.1122 116.748C44.7042 116.484 44.3842 116.116 44.1522 115.644C43.9282 115.164 43.8162 114.616 43.8162 114C43.8162 113.376 43.9282 112.828 44.1522 112.356C44.3842 111.884 44.7042 111.516 45.1122 111.252C45.5202 110.988 45.9922 110.856 46.5282 110.856C47.0322 110.856 47.4722 110.988 47.8482 111.252C48.2322 111.516 48.5282 111.884 48.7362 112.356C48.9442 112.828 49.0482 113.376 49.0482 114C49.0482 114.616 48.9442 115.164 48.7362 115.644C48.5282 116.116 48.2322 116.484 47.8482 116.748C47.4722 117.012 47.0322 117.144 46.5282 117.144ZM46.7442 116.268C47.0962 116.268 47.4082 116.172 47.6802 115.98C47.9522 115.788 48.1642 115.52 48.3162 115.176C48.4762 114.832 48.5562 114.44 48.5562 114C48.5562 113.56 48.4762 113.168 48.3162 112.824C48.1642 112.48 47.9522 112.212 47.6802 112.02C47.4082 111.828 47.0922 111.732 46.7322 111.732C46.3562 111.732 46.0202 111.828 45.7242 112.02C45.4362 112.212 45.2082 112.48 45.0402 112.824C44.8722 113.168 44.7882 113.56 44.7882 114C44.7882 114.44 44.8722 114.832 45.0402 115.176C45.2082 115.52 45.4402 115.788 45.7362 115.98C46.0322 116.172 46.3682 116.268 46.7442 116.268ZM54.8915 117L54.8435 116.016V113.832C54.8435 113.36 54.7915 112.972 54.6875 112.668C54.5835 112.356 54.4195 112.12 54.1955 111.96C53.9715 111.8 53.6795 111.72 53.3195 111.72C52.9915 111.72 52.7075 111.788 52.4675 111.924C52.2355 112.052 52.0435 112.26 51.8915 112.548L51.0275 112.212C51.1795 111.932 51.3635 111.692 51.5795 111.492C51.7955 111.284 52.0475 111.128 52.3355 111.024C52.6235 110.912 52.9515 110.856 53.3195 110.856C53.8795 110.856 54.3395 110.968 54.6995 111.192C55.0675 111.408 55.3435 111.732 55.5275 112.164C55.7115 112.588 55.7995 113.116 55.7915 113.748L55.7795 117H54.8915ZM53.0915 117.144C52.3875 117.144 51.8355 116.984 51.4355 116.664C51.0435 116.336 50.8475 115.884 50.8475 115.308C50.8475 114.7 51.0475 114.236 51.4475 113.916C51.8555 113.588 52.4235 113.424 53.1515 113.424H54.8675V114.228H53.3675C52.8075 114.228 52.4075 114.32 52.1675 114.504C51.9355 114.688 51.8195 114.952 51.8195 115.296C51.8195 115.608 51.9355 115.856 52.1675 116.04C52.3995 116.216 52.7235 116.304 53.1395 116.304C53.4835 116.304 53.7835 116.232 54.0395 116.088C54.2955 115.936 54.4915 115.724 54.6275 115.452C54.7715 115.172 54.8435 114.844 54.8435 114.468H55.2515C55.2515 115.284 55.0675 115.936 54.6995 116.424C54.3315 116.904 53.7955 117.144 53.0915 117.144ZM64.1295 117.144C63.3215 117.144 62.6055 116.96 61.9815 116.592C61.3575 116.224 60.8695 115.712 60.5175 115.056C60.1655 114.4 59.9895 113.648 59.9895 112.8C59.9895 112.16 60.0895 111.576 60.2895 111.048C60.4895 110.512 60.7695 110.052 61.1295 109.668C61.4975 109.284 61.9335 108.988 62.4375 108.78C62.9415 108.564 63.4935 108.456 64.0935 108.456C64.9015 108.456 65.6135 108.644 66.2295 109.02C66.8535 109.388 67.3375 109.9 67.6815 110.556C68.0255 111.204 68.1975 111.952 68.1975 112.8C68.1975 113.648 68.0255 114.4 67.6815 115.056C67.3375 115.712 66.8575 116.224 66.2415 116.592C65.6335 116.96 64.9295 117.144 64.1295 117.144ZM67.5615 117.468L64.5615 114.432L65.2335 113.796L68.2095 116.808L67.5615 117.468ZM64.1295 116.22C64.7295 116.22 65.2575 116.076 65.7135 115.788C66.1695 115.492 66.5255 115.088 66.7815 114.576C67.0455 114.064 67.1775 113.472 67.1775 112.8C67.1775 112.136 67.0455 111.548 66.7815 111.036C66.5175 110.516 66.1535 110.112 65.6895 109.824C65.2335 109.528 64.7015 109.38 64.0935 109.38C63.4935 109.38 62.9615 109.528 62.4975 109.824C62.0335 110.112 61.6695 110.516 61.4055 111.036C61.1415 111.548 61.0095 112.136 61.0095 112.8C61.0095 113.472 61.1415 114.064 61.4055 114.576C61.6695 115.088 62.0375 115.492 62.5095 115.788C62.9815 116.076 63.5215 116.22 64.1295 116.22ZM73.7568 117L73.6968 115.896V111H74.6568V117H73.7568ZM69.4848 114.072V111H70.4448V114.072H69.4848ZM70.4448 114.072C70.4448 114.664 70.5128 115.116 70.6488 115.428C70.7848 115.74 70.9728 115.956 71.2128 116.076C71.4608 116.188 71.7368 116.244 72.0408 116.244C72.5608 116.244 72.9648 116.056 73.2528 115.68C73.5488 115.304 73.6968 114.78 73.6968 114.108H74.1648C74.1648 114.74 74.0728 115.284 73.8888 115.74C73.7048 116.196 73.4368 116.544 73.0848 116.784C72.7408 117.024 72.3168 117.144 71.8128 117.144C71.3488 117.144 70.9408 117.052 70.5888 116.868C70.2368 116.676 69.9648 116.376 69.7728 115.968C69.5808 115.552 69.4848 115.016 69.4848 114.36V114.072H70.4448ZM80.0282 117L79.9802 116.016V113.832C79.9802 113.36 79.9282 112.972 79.8242 112.668C79.7202 112.356 79.5562 112.12 79.3322 111.96C79.1082 111.8 78.8162 111.72 78.4562 111.72C78.1282 111.72 77.8442 111.788 77.6042 111.924C77.3722 112.052 77.1802 112.26 77.0282 112.548L76.1642 112.212C76.3162 111.932 76.5002 111.692 76.7162 111.492C76.9322 111.284 77.1842 111.128 77.4722 111.024C77.7602 110.912 78.0882 110.856 78.4562 110.856C79.0162 110.856 79.4762 110.968 79.8362 111.192C80.2042 111.408 80.4802 111.732 80.6642 112.164C80.8482 112.588 80.9362 113.116 80.9282 113.748L80.9162 117H80.0282ZM78.2282 117.144C77.5242 117.144 76.9722 116.984 76.5722 116.664C76.1802 116.336 75.9842 115.884 75.9842 115.308C75.9842 114.7 76.1842 114.236 76.5842 113.916C76.9922 113.588 77.5602 113.424 78.2882 113.424H80.0042V114.228H78.5042C77.9442 114.228 77.5442 114.32 77.3042 114.504C77.0722 114.688 76.9562 114.952 76.9562 115.296C76.9562 115.608 77.0722 115.856 77.3042 116.04C77.5362 116.216 77.8602 116.304 78.2762 116.304C78.6202 116.304 78.9202 116.232 79.1762 116.088C79.4322 115.936 79.6282 115.724 79.7642 115.452C79.9082 115.172 79.9802 114.844 79.9802 114.468H80.3882C80.3882 115.284 80.2042 115.936 79.8362 116.424C79.4682 116.904 78.9322 117.144 78.2282 117.144ZM82.4494 117V108.6H83.4094V117H82.4494ZM85.1461 117V111H86.1061V117H85.1461ZM85.6381 109.608C85.4781 109.608 85.3381 109.548 85.2181 109.428C85.0981 109.308 85.0381 109.168 85.0381 109.008C85.0381 108.84 85.0981 108.7 85.2181 108.588C85.3381 108.468 85.4781 108.408 85.6381 108.408C85.8061 108.408 85.9461 108.468 86.0581 108.588C86.1781 108.7 86.2381 108.84 86.2381 109.008C86.2381 109.168 86.1781 109.308 86.0581 109.428C85.9461 109.548 85.8061 109.608 85.6381 109.608ZM90.1312 117.144C89.5472 117.144 89.0952 116.992 88.7752 116.688C88.4552 116.384 88.2952 115.956 88.2952 115.404V109.128H89.2552V115.308C89.2552 115.612 89.3352 115.848 89.4952 116.016C89.6632 116.176 89.8952 116.256 90.1912 116.256C90.2872 116.256 90.3792 116.244 90.4672 116.22C90.5632 116.188 90.6872 116.116 90.8392 116.004L91.2112 116.784C91.0032 116.92 90.8152 117.012 90.6472 117.06C90.4792 117.116 90.3072 117.144 90.1312 117.144ZM87.2512 111.852V111H91.0552V111.852H87.2512ZM92.9503 119.544C92.7983 119.544 92.6223 119.512 92.4223 119.448C92.2223 119.392 92.0103 119.316 91.7863 119.22L92.1463 118.416C92.3303 118.496 92.4903 118.556 92.6263 118.596C92.7703 118.636 92.8823 118.656 92.9623 118.656C93.1783 118.656 93.3543 118.596 93.4903 118.476C93.6343 118.364 93.7543 118.2 93.8503 117.984L94.5343 116.352L96.7543 111H97.7863L94.9063 117.84C94.7543 118.192 94.5943 118.496 94.4263 118.752C94.2663 119.008 94.0703 119.204 93.8383 119.34C93.6063 119.476 93.3103 119.544 92.9503 119.544ZM94.2703 117L91.6783 111H92.6983L94.9303 116.34L95.2183 117H94.2703Z" fill="white"/>
<path d="M217.241 150.586H220.862H224.483L220.862 154.931L217.241 150.586Z" fill="#24292F"/>
<rect x="210" y="139" width="21" height="11.5862" rx="5.7931" fill="#24292F"/>
<path d="M216.102 142.521C216.398 142.521 216.642 142.577 216.834 142.689C217.026 142.797 217.18 142.945 217.296 143.133C217.416 143.321 217.5 143.539 217.548 143.787C217.6 144.031 217.626 144.291 217.626 144.567C217.626 144.927 217.588 145.249 217.512 145.533C217.436 145.817 217.328 146.059 217.188 146.259C217.048 146.455 216.878 146.605 216.678 146.709C216.482 146.813 216.258 146.865 216.006 146.865C215.798 146.865 215.59 146.833 215.382 146.769C215.178 146.701 214.994 146.609 214.83 146.493L215.112 146.133C215.24 146.221 215.378 146.291 215.526 146.343C215.678 146.391 215.822 146.415 215.958 146.415C216.366 146.415 216.676 146.243 216.888 145.899C217.104 145.555 217.198 145.035 217.17 144.339L217.278 144.441C217.182 144.685 217.028 144.879 216.816 145.023C216.604 145.167 216.354 145.239 216.066 145.239C215.794 145.239 215.554 145.181 215.346 145.065C215.138 144.945 214.974 144.783 214.854 144.579C214.738 144.375 214.68 144.139 214.68 143.871C214.68 143.607 214.74 143.375 214.86 143.175C214.98 142.971 215.146 142.811 215.358 142.695C215.574 142.579 215.822 142.521 216.102 142.521ZM216.102 142.965C215.926 142.965 215.768 143.005 215.628 143.085C215.488 143.161 215.378 143.269 215.298 143.409C215.222 143.545 215.184 143.703 215.184 143.883C215.184 144.063 215.222 144.223 215.298 144.363C215.378 144.499 215.488 144.607 215.628 144.687C215.768 144.763 215.926 144.801 216.102 144.801C216.286 144.801 216.446 144.763 216.582 144.687C216.722 144.607 216.83 144.499 216.906 144.363C216.986 144.223 217.026 144.063 217.026 143.883C217.026 143.703 216.986 143.545 216.906 143.409C216.83 143.269 216.722 143.161 216.582 143.085C216.446 143.005 216.286 142.965 216.102 142.965ZM219.638 146.865C219.47 146.865 219.298 146.841 219.122 146.793C218.95 146.741 218.786 146.663 218.63 146.559C218.478 146.455 218.352 146.321 218.252 146.157L218.66 145.923C218.8 146.099 218.952 146.227 219.116 146.307C219.28 146.387 219.45 146.427 219.626 146.427C219.902 146.427 220.126 146.343 220.298 146.175C220.474 146.003 220.562 145.779 220.562 145.503C220.562 145.231 220.478 145.009 220.31 144.837C220.142 144.665 219.922 144.579 219.65 144.579C219.502 144.579 219.356 144.613 219.212 144.681C219.068 144.745 218.956 144.825 218.876 144.921L218.42 144.813L218.624 142.593H220.862V143.049H219.074L218.948 144.387C219.06 144.319 219.184 144.265 219.32 144.225C219.456 144.185 219.594 144.165 219.734 144.165C219.99 144.165 220.218 144.221 220.418 144.333C220.618 144.445 220.776 144.601 220.892 144.801C221.008 145.001 221.066 145.231 221.066 145.491C221.066 145.763 221.004 146.003 220.88 146.211C220.76 146.415 220.592 146.575 220.376 146.691C220.164 146.807 219.918 146.865 219.638 146.865ZM221.932 146.793L224.914 142.593H225.472L222.472 146.793H221.932ZM224.842 146.889C224.662 146.889 224.5 146.847 224.356 146.763C224.216 146.675 224.106 146.557 224.026 146.409C223.95 146.257 223.912 146.085 223.912 145.893C223.912 145.697 223.95 145.525 224.026 145.377C224.106 145.229 224.216 145.113 224.356 145.029C224.5 144.941 224.662 144.897 224.842 144.897C225.026 144.897 225.188 144.941 225.328 145.029C225.468 145.113 225.578 145.229 225.658 145.377C225.738 145.525 225.778 145.697 225.778 145.893C225.778 146.085 225.738 146.257 225.658 146.409C225.578 146.557 225.468 146.675 225.328 146.763C225.188 146.847 225.026 146.889 224.842 146.889ZM224.842 146.505C224.998 146.505 225.124 146.447 225.22 146.331C225.316 146.215 225.364 146.069 225.364 145.893C225.364 145.717 225.316 145.571 225.22 145.455C225.124 145.339 224.998 145.281 224.842 145.281C224.694 145.281 224.57 145.339 224.47 145.455C224.374 145.571 224.326 145.717 224.326 145.893C224.326 146.069 224.374 146.215 224.47 146.331C224.57 146.447 224.694 146.505 224.842 146.505ZM222.568 144.489C222.384 144.489 222.222 144.447 222.082 144.363C221.942 144.275 221.832 144.157 221.752 144.009C221.672 143.857 221.632 143.685 221.632 143.493C221.632 143.297 221.672 143.125 221.752 142.977C221.832 142.829 221.942 142.713 222.082 142.629C222.222 142.541 222.384 142.497 222.568 142.497C222.752 142.497 222.914 142.541 223.054 142.629C223.194 142.713 223.304 142.829 223.384 142.977C223.464 143.125 223.504 143.297 223.504 143.493C223.504 143.685 223.464 143.857 223.384 144.009C223.304 144.157 223.194 144.275 223.054 144.363C222.914 144.447 222.752 144.489 222.568 144.489ZM222.568 144.105C222.72 144.105 222.844 144.047 222.94 143.931C223.036 143.815 223.084 143.669 223.084 143.493C223.084 143.317 223.036 143.171 222.94 143.055C222.844 142.939 222.72 142.881 222.568 142.881C222.42 142.881 222.296 142.939 222.196 143.055C222.1 143.171 222.052 143.317 222.052 143.493C222.052 143.669 222.1 143.815 222.196 143.931C222.296 144.047 222.42 144.105 222.568 144.105Z" fill="white"/>
<rect x="15" y="157" width="230" height="3" rx="1.5" fill="#24292F"/>
<rect x="15" y="157" width="204" height="3" rx="1.5" fill="#5D6064"/>
<path d="M18.804 150.144C18.34 150.144 17.928 150.096 17.568 150C17.208 149.896 16.896 149.756 16.632 149.58C16.368 149.396 16.152 149.196 15.984 148.98C15.816 148.756 15.692 148.52 15.612 148.272L16.584 147.936C16.704 148.288 16.944 148.596 17.304 148.86C17.672 149.116 18.12 149.244 18.648 149.244C19.296 149.244 19.804 149.116 20.172 148.86C20.54 148.604 20.724 148.264 20.724 147.84C20.724 147.448 20.56 147.132 20.232 146.892C19.904 146.644 19.472 146.452 18.936 146.316L18.012 146.076C17.636 145.98 17.288 145.84 16.968 145.656C16.656 145.464 16.404 145.224 16.212 144.936C16.028 144.64 15.936 144.288 15.936 143.88C15.936 143.12 16.18 142.528 16.668 142.104C17.164 141.672 17.876 141.456 18.804 141.456C19.356 141.456 19.832 141.548 20.232 141.732C20.632 141.908 20.956 142.136 21.204 142.416C21.46 142.688 21.64 142.984 21.744 143.304L20.784 143.64C20.632 143.24 20.376 142.928 20.016 142.704C19.656 142.472 19.22 142.356 18.708 142.356C18.172 142.356 17.744 142.488 17.424 142.752C17.112 143.008 16.956 143.36 16.956 143.808C16.956 144.192 17.08 144.488 17.328 144.696C17.576 144.896 17.9 145.044 18.3 145.14L19.224 145.368C20.04 145.56 20.664 145.88 21.096 146.328C21.536 146.768 21.756 147.244 21.756 147.756C21.756 148.196 21.644 148.6 21.42 148.968C21.196 149.328 20.864 149.616 20.424 149.832C19.992 150.04 19.452 150.144 18.804 150.144ZM25.8391 150.144C25.2551 150.144 24.7391 150.012 24.2911 149.748C23.8431 149.476 23.4911 149.104 23.2351 148.632C22.9871 148.16 22.8631 147.616 22.8631 147C22.8631 146.384 22.9871 145.84 23.2351 145.368C23.4911 144.896 23.8391 144.528 24.2791 144.264C24.7271 143.992 25.2391 143.856 25.8151 143.856C26.3751 143.856 26.8591 143.996 27.2671 144.276C27.6751 144.548 27.9911 144.932 28.2151 145.428C28.4391 145.924 28.5511 146.508 28.5511 147.18H23.5951L23.8351 146.976C23.8351 147.456 23.9191 147.868 24.0871 148.212C24.2631 148.556 24.5071 148.82 24.8191 149.004C25.1311 149.18 25.4871 149.268 25.8871 149.268C26.3111 149.268 26.6671 149.168 26.9551 148.968C27.2511 148.768 27.4791 148.504 27.6391 148.176L28.4671 148.596C28.3151 148.908 28.1111 149.18 27.8551 149.412C27.6071 149.644 27.3111 149.824 26.9671 149.952C26.6311 150.08 26.2551 150.144 25.8391 150.144ZM23.8951 146.568L23.6431 146.376H27.7831L27.5311 146.58C27.5311 146.196 27.4551 145.864 27.3031 145.584C27.1511 145.304 26.9471 145.088 26.6911 144.936C26.4351 144.784 26.1391 144.708 25.8031 144.708C25.4751 144.708 25.1631 144.784 24.8671 144.936C24.5791 145.088 24.3431 145.304 24.1591 145.584C23.9831 145.856 23.8951 146.184 23.8951 146.568ZM29.7619 150V144H30.6619L30.7219 145.104V150H29.7619ZM33.9739 150V146.928H34.9339V150H33.9739ZM33.9739 146.928C33.9739 146.336 33.9059 145.884 33.7699 145.572C33.6339 145.26 33.4459 145.048 33.2059 144.936C32.9659 144.816 32.6939 144.756 32.3899 144.756C31.8619 144.756 31.4499 144.944 31.1539 145.32C30.8659 145.688 30.7219 146.212 30.7219 146.892H30.2539C30.2539 146.26 30.3459 145.716 30.5299 145.26C30.7139 144.804 30.9819 144.456 31.3339 144.216C31.6859 143.976 32.1099 143.856 32.6059 143.856C33.0779 143.856 33.4859 143.952 33.8299 144.144C34.1819 144.328 34.4539 144.624 34.6459 145.032C34.8459 145.44 34.9419 145.976 34.9339 146.64V146.928H33.9739ZM38.7093 150.144C38.1253 150.144 37.6733 149.992 37.3533 149.688C37.0333 149.384 36.8733 148.956 36.8733 148.404V142.128H37.8333V148.308C37.8333 148.612 37.9133 148.848 38.0733 149.016C38.2413 149.176 38.4733 149.256 38.7693 149.256C38.8653 149.256 38.9573 149.244 39.0453 149.22C39.1413 149.188 39.2653 149.116 39.4173 149.004L39.7893 149.784C39.5813 149.92 39.3933 150.012 39.2253 150.06C39.0573 150.116 38.8853 150.144 38.7093 150.144ZM35.8293 144.852V144H39.6333V144.852H35.8293ZM41.0484 150V144H42.0084V150H41.0484ZM41.5404 142.608C41.3804 142.608 41.2404 142.548 41.1204 142.428C41.0004 142.308 40.9404 142.168 40.9404 142.008C40.9404 141.84 41.0004 141.7 41.1204 141.588C41.2404 141.468 41.3804 141.408 41.5404 141.408C41.7084 141.408 41.8484 141.468 41.9604 141.588C42.0804 141.7 42.1404 141.84 42.1404 142.008C42.1404 142.168 42.0804 142.308 41.9604 142.428C41.8484 142.548 41.7084 142.608 41.5404 142.608ZM43.7775 150V144H44.6775L44.7255 144.84C44.9095 144.52 45.1455 144.276 45.4335 144.108C45.7215 143.94 46.0575 143.856 46.4415 143.856C46.9215 143.856 47.3295 143.968 47.6655 144.192C48.0095 144.416 48.2575 144.756 48.4095 145.212C48.5775 144.772 48.8215 144.436 49.1415 144.204C49.4695 143.972 49.8575 143.856 50.3055 143.856C50.9775 143.856 51.5055 144.08 51.8895 144.528C52.2815 144.976 52.4735 145.656 52.4655 146.568V150H51.5055V146.928C51.5055 146.336 51.4415 145.884 51.3135 145.572C51.1935 145.26 51.0295 145.048 50.8215 144.936C50.6135 144.816 50.3735 144.756 50.1015 144.756C49.6295 144.756 49.2615 144.944 48.9975 145.32C48.7335 145.688 48.6015 146.212 48.6015 146.892V150H47.6415V146.928C47.6415 146.336 47.5775 145.884 47.4495 145.572C47.3295 145.26 47.1615 145.048 46.9455 144.936C46.7375 144.816 46.4975 144.756 46.2255 144.756C45.7615 144.756 45.3975 144.944 45.1335 145.32C44.8695 145.688 44.7375 146.212 44.7375 146.892V150H43.7775ZM56.6125 150.144C56.0285 150.144 55.5125 150.012 55.0645 149.748C54.6165 149.476 54.2645 149.104 54.0085 148.632C53.7605 148.16 53.6365 147.616 53.6365 147C53.6365 146.384 53.7605 145.84 54.0085 145.368C54.2645 144.896 54.6125 144.528 55.0525 144.264C55.5005 143.992 56.0125 143.856 56.5885 143.856C57.1485 143.856 57.6325 143.996 58.0405 144.276C58.4485 144.548 58.7645 144.932 58.9885 145.428C59.2125 145.924 59.3245 146.508 59.3245 147.18H54.3685L54.6085 146.976C54.6085 147.456 54.6925 147.868 54.8605 148.212C55.0365 148.556 55.2805 148.82 55.5925 149.004C55.9045 149.18 56.2605 149.268 56.6605 149.268C57.0845 149.268 57.4405 149.168 57.7285 148.968C58.0245 148.768 58.2525 148.504 58.4125 148.176L59.2405 148.596C59.0885 148.908 58.8845 149.18 58.6285 149.412C58.3805 149.644 58.0845 149.824 57.7405 149.952C57.4045 150.08 57.0285 150.144 56.6125 150.144ZM54.6685 146.568L54.4165 146.376H58.5565L58.3045 146.58C58.3045 146.196 58.2285 145.864 58.0765 145.584C57.9245 145.304 57.7205 145.088 57.4645 144.936C57.2085 144.784 56.9125 144.708 56.5765 144.708C56.2485 144.708 55.9365 144.784 55.6405 144.936C55.3525 145.088 55.1165 145.304 54.9325 145.584C54.7565 145.856 54.6685 146.184 54.6685 146.568ZM60.5353 150V144H61.4353L61.4953 145.104V150H60.5353ZM64.7473 150V146.928H65.7073V150H64.7473ZM64.7473 146.928C64.7473 146.336 64.6793 145.884 64.5433 145.572C64.4073 145.26 64.2193 145.048 63.9793 144.936C63.7393 144.816 63.4673 144.756 63.1633 144.756C62.6353 144.756 62.2233 144.944 61.9273 145.32C61.6393 145.688 61.4953 146.212 61.4953 146.892H61.0273C61.0273 146.26 61.1193 145.716 61.3033 145.26C61.4873 144.804 61.7553 144.456 62.1073 144.216C62.4593 143.976 62.8833 143.856 63.3793 143.856C63.8513 143.856 64.2593 143.952 64.6033 144.144C64.9553 144.328 65.2273 144.624 65.4193 145.032C65.6193 145.44 65.7153 145.976 65.7073 146.64V146.928H64.7473ZM69.4827 150.144C68.8987 150.144 68.4467 149.992 68.1267 149.688C67.8067 149.384 67.6467 148.956 67.6467 148.404V142.128H68.6067V148.308C68.6067 148.612 68.6867 148.848 68.8467 149.016C69.0147 149.176 69.2467 149.256 69.5427 149.256C69.6387 149.256 69.7307 149.244 69.8187 149.22C69.9147 149.188 70.0387 149.116 70.1907 149.004L70.5627 149.784C70.3547 149.92 70.1667 150.012 69.9987 150.06C69.8307 150.116 69.6587 150.144 69.4827 150.144ZM66.6027 144.852V144H70.4067V144.852H66.6027Z" fill="white"/>
</svg>
